<svg width="752" height="250" viewBox="0 0 752 250" fill="none" xmlns="http://www.w3.org/2000/svg">
<g clip-path="url(#clip0_181_953)">
<path d="M162.268 29.4238C165.286 29.4105 168.276 30.013 171.07 31.1979C173.863 32.3827 176.403 34.1264 178.547 36.3293C180.69 38.5325 182.394 41.1517 183.561 44.0377C184.728 46.9237 185.336 50.0197 185.349 53.1494V195.552C185.329 198.681 184.715 201.776 183.542 204.66C182.368 207.543 180.659 210.158 178.511 212.356C176.363 214.555 173.818 216.293 171.023 217.471C168.227 218.649 165.235 219.244 162.217 219.225H23.5249C20.5028 219.244 17.5065 218.648 14.7075 217.466C11.9084 216.284 9.36176 214.542 7.21298 212.338C5.06419 210.134 3.35574 207.512 2.18556 204.623C1.01512 201.734 0.405991 198.633 0.392578 195.499V53.1494C0.405991 50.0154 1.01512 46.9148 2.18556 44.0256C3.35574 41.1361 5.06419 38.5145 7.21298 36.3106C9.36176 34.1069 11.9084 32.3643 14.7075 31.1827C17.5065 30.0009 20.5028 29.4034 23.5249 29.4238H162.268ZM30.608 162.415C28.9889 162.543 27.4846 163.33 26.4228 164.604C25.9073 165.233 25.5168 165.962 25.2736 166.748C25.0304 167.535 24.9393 168.363 25.0053 169.186C25.0716 170.009 25.2936 170.81 25.659 171.544C26.0244 172.277 26.5258 172.929 27.1346 173.461C28.1006 174.305 50.826 193.97 92.7692 193.97C134.712 193.97 157.59 174.199 158.404 173.356L158.455 173.409C159.654 172.32 160.391 170.785 160.506 169.136C160.62 167.488 160.102 165.859 159.065 164.604C157.987 163.339 156.476 162.559 154.852 162.431C153.229 162.303 151.621 162.837 150.371 163.919C150.168 164.077 129.578 181.37 92.7184 181.37C55.8592 181.37 35.4216 164.182 35.0655 163.919C33.8295 162.827 32.2271 162.286 30.608 162.415ZM636.091 89.2078C655.592 89.2078 664.027 102.638 664.027 124.203C664.027 146.051 655.499 159.199 636.091 159.199C616.321 159.199 608.064 146.051 608.064 124.203C608.064 103.018 616.407 89.2078 636.091 89.2078ZM92.9727 54.6782C91.3412 54.6782 89.7765 55.3503 88.6227 56.5468C87.469 57.743 86.8209 59.3657 86.8209 61.0577V152.794C86.8209 154.486 87.469 156.109 88.6227 157.305C89.7765 158.502 91.3412 159.174 92.9727 159.174C94.6042 159.174 96.1689 158.502 97.3224 157.305C98.4761 156.109 99.1242 154.486 99.1242 152.794V61.0577C99.1242 59.3657 98.4761 57.743 97.3224 56.5468C96.1689 55.3503 94.6042 54.6782 92.9727 54.6782ZM570.607 89.2078C577.772 89.2078 583.306 90.913 587.477 94.6004C591.106 97.6253 593.735 101.885 595.276 107.844C596.091 110.965 594.006 114.087 590.562 114.749C587.297 115.316 584.67 113.141 583.671 110.02C582.582 106.995 581.127 104.82 579.406 103.301C577.048 101.126 574.148 100.18 570.334 100.18C566.255 100.18 562.714 101.409 560.085 104.151C556.276 108.122 554.641 115.22 554.641 124.203C554.641 133.097 556.185 140.189 560.176 144.159C562.805 146.901 566.255 148.13 570.243 148.13C574.413 148.13 577.587 146.997 580.221 144.443C581.578 143.117 582.762 141.418 583.577 139.429C584.756 136.495 587.206 134.32 590.377 135.079C593.55 135.838 595.55 139.05 594.55 142.171C592.915 147.371 590.106 151.535 586.297 154.372C582.127 157.494 576.957 159.102 570.428 159.102C562.084 159.102 556.82 156.548 552.827 152.957C546.027 146.618 542.942 136.688 542.942 124.203C542.942 111.622 545.936 101.789 552.65 95.5464C556.82 91.7625 562.441 89.2078 570.607 89.2078ZM486.633 90.2417L486.989 90.2502H508.482C523.269 90.2502 529.433 100.276 529.433 110.489C529.433 120.065 524.176 127.172 515.126 129.21L514.647 129.313L525.984 150.305C527.528 153.047 526.528 156.548 523.355 158.253C520.366 159.811 517.121 158.706 515.525 156.143L515.376 155.891L502.768 131.584H490.798L490.889 152.203C490.889 155.421 488.533 158.066 485.175 158.066C482.012 158.066 479.702 155.578 479.561 152.503L479.554 152.203V97.7217C479.554 93.0508 481.927 90.343 486.285 90.2441L486.633 90.2417ZM294.532 90.2441C300.246 90.2441 302.602 93.4619 304.872 98.1917L316.116 121.178L325.73 143.503L325.459 122.124L325.368 96.3058C325.368 93.0881 327.724 90.443 331.082 90.443C334.339 90.437 336.698 93.0823 336.698 96.2998V147.377C336.698 154.282 333.163 158.162 327.539 158.162H327.089C321.739 158.162 319.196 154.945 316.931 150.215L305.502 127.041L295.344 103.114L295.618 126.288L295.709 152.107C295.709 155.325 293.353 157.97 289.994 157.97C286.73 157.97 284.374 155.318 284.374 152.107V101.03C284.374 94.691 287.909 90.2441 294.079 90.2441H294.532ZM257.794 90.437C261.059 90.437 263.417 93.0881 263.417 96.2998V152.197C263.417 155.415 261.059 158.06 257.703 158.06C254.439 158.06 252.08 155.409 252.08 152.197V96.2998C252.08 93.082 254.439 90.437 257.794 90.437ZM742.022 90.443C748.371 90.443 751.907 94.4137 751.907 101.512L752 152.107C752 155.325 749.642 157.97 746.286 157.97C743.022 157.97 740.663 155.318 740.663 152.107V126.758L740.936 102.072L733.043 127.138L725.064 151.824C723.708 156.174 720.893 157.879 717.356 157.879C713.636 157.879 710.915 156.084 709.465 151.733L701.301 127.144L693.772 102.458L694.043 126.764V152.113C694.043 155.331 691.685 157.976 688.329 157.976C685.064 157.976 682.708 155.325 682.708 152.113V101.512C682.708 94.5101 686.335 90.443 692.684 90.443C698.672 90.443 702.027 93.7509 703.928 99.8065L712.271 125.625L717.351 143.219L722.521 125.625L730.864 99.8065C732.772 93.7509 736.037 90.443 742.022 90.443ZM396.196 90.443C399.096 90.443 401.455 92.7146 401.455 96.0224C401.455 99.2401 399.096 101.506 396.196 101.506H382.139V152.107C382.139 155.325 379.782 157.97 376.424 157.97C373.162 157.97 370.804 155.318 370.804 152.107V101.506H356.746C353.846 101.506 351.49 99.2341 351.49 95.926C351.49 92.7085 353.846 90.443 356.746 90.443H396.196ZM423.677 90.2502H456.328C459.228 90.2502 461.584 92.6121 461.584 95.8298C461.584 99.0473 459.228 101.313 456.328 101.313H427.483V117.581H452.969C455.783 117.581 458.048 119.757 458.048 122.878C458.048 125.999 455.783 128.174 452.969 128.174H427.483V146.901H456.328C459.228 146.901 461.584 149.263 461.584 152.481C461.584 155.698 459.228 157.964 456.328 157.964H423.404C418.689 157.97 416.062 155.228 416.239 150.215V97.7217C416.239 92.8049 418.869 90.0634 423.677 90.2502ZM62.316 58.1578C60.6789 58.0715 59.0752 58.6609 57.8559 59.7969C56.6364 60.9332 55.9005 62.5237 55.8083 64.221V148.577C55.8083 150.268 56.4564 151.891 57.6102 153.087C58.7639 154.284 60.3286 154.956 61.9601 154.956C63.5917 154.956 65.1564 154.284 66.3101 153.087C67.4636 151.891 68.1117 150.268 68.1117 148.577V64.221C68.0388 62.6462 67.4061 61.1554 66.3359 60.0358C65.2657 58.9163 63.8336 58.2472 62.316 58.1578ZM123.477 57.8415C121.845 57.8415 120.281 58.5136 119.127 59.7101C117.973 60.9064 117.325 62.529 117.325 64.221V148.577C117.325 150.268 117.973 151.891 119.127 153.087C120.281 154.284 121.845 154.956 123.477 154.956C125.108 154.956 126.673 154.284 127.827 153.087C128.98 151.891 129.628 150.268 129.628 148.577V64.221C129.628 62.529 128.98 60.9064 127.827 59.7101C126.673 58.5136 125.108 57.8415 123.477 57.8415ZM636 100.276C625.386 100.276 619.763 108.128 619.763 124.203C619.763 140.285 625.206 148.13 636 148.13C646.699 148.13 652.414 140.279 652.414 124.203C652.414 108.122 646.793 100.276 636 100.276ZM154.388 70.4948C152.756 70.4948 151.191 71.167 150.038 72.3635C148.884 73.5597 148.236 75.1824 148.236 76.8744V133.867C148.236 135.559 148.884 137.181 150.038 138.378C151.191 139.574 152.756 140.246 154.388 140.246C156.019 140.246 157.584 139.574 158.738 138.378C159.891 137.181 160.539 135.559 160.539 133.867V76.8744C160.539 75.1824 159.891 73.5597 158.738 72.3635C157.584 71.167 156.019 70.4948 154.388 70.4948ZM31.456 70.8112C29.8189 70.7249 28.2152 71.3142 26.996 72.4503C25.7764 73.5865 25.0403 75.1771 24.9484 76.8744V133.761C24.9484 135.453 25.5965 137.076 26.7502 138.272C27.904 139.469 29.4687 140.141 31.1002 140.141C32.7317 140.141 34.2964 139.469 35.4499 138.272C36.6036 137.076 37.2517 135.453 37.2517 133.761V76.8744C37.1788 75.2995 36.5462 73.8087 35.476 72.6892C34.4057 71.5696 32.9736 70.9005 31.456 70.8112ZM508.657 101.307H490.79V120.889H508.748C514.826 120.889 518 116.822 518 111.05C518 105.278 514.642 101.307 508.657 101.307Z" fill="white"/>
</g>
<defs>
<clipPath id="clip0_181_953">
<rect width="752" height="250" fill="white"/>
</clipPath>
</defs>
</svg>
