<svg width="187" height="42" viewBox="0 0 187 42" fill="none" xmlns="http://www.w3.org/2000/svg">
<rect x="15.4629" y="6.51034" width="20.4317" height="20.4317" rx="4.25163" transform="rotate(45 15.4629 6.51034)" stroke="#E5FB6F" stroke-width="1.43713"/>
<rect x="28.7578" y="6.59628" width="20.4317" height="20.4317" rx="4.25163" transform="rotate(45 28.7578 6.59628)" stroke="#E5FB6F" stroke-width="1.43713"/>
<path d="M53.0227 29.144H65.4387V31H51.0707V8.92H65.2787V10.776H53.0227V18.968H64.2227V20.824H53.0227V29.144ZM77.8489 14.296C81.9449 14.296 84.6969 16.984 84.6969 21.112V31H82.8409V21.656C82.8409 18.296 80.6329 16.088 77.3049 16.088C73.8489 16.088 71.5129 18.328 71.5129 21.72V31H69.6569V14.68H71.5129V17.752C72.7289 15.544 74.9689 14.296 77.8489 14.296ZM99.8352 31.704C102.811 31.704 104.859 33.272 105.051 35.8L103.131 36.248C103.099 34.616 101.659 33.528 99.5152 33.528H93.0832C90.5552 33.528 88.8592 32.088 88.8592 29.944C88.8592 28.504 89.5952 27.16 90.7792 26.52C89.3712 25.24 88.5072 23.416 88.5072 21.336C88.5072 17.336 91.6432 14.296 95.8352 14.296C97.4352 14.296 98.9072 14.744 100.091 15.544C100.315 13.848 101.627 12.76 103.515 12.76H104.731V14.488H103.611C102.299 14.488 101.403 15.32 101.403 16.6V16.696C102.491 17.912 103.131 19.512 103.131 21.336C103.131 25.336 99.9952 28.344 95.8352 28.344C94.3952 28.344 93.0512 27.992 91.9632 27.352C91.1632 27.8 90.7152 28.632 90.7152 29.496C90.7152 30.84 91.8032 31.704 93.4032 31.704H99.8352ZM90.4272 21.336C90.4272 24.312 92.7632 26.584 95.8352 26.584C98.9072 26.584 101.211 24.312 101.211 21.336C101.211 18.328 98.9072 16.056 95.8352 16.056C92.7312 16.056 90.4272 18.328 90.4272 21.336ZM121.68 14.68H123.536V31H121.68V27.224C120.336 29.752 117.776 31.384 114.64 31.384C109.904 31.384 106.352 27.704 106.352 22.84C106.352 17.976 109.904 14.296 114.64 14.296C117.776 14.296 120.336 15.928 121.68 18.456V14.68ZM114.96 29.592C118.8 29.592 121.68 26.68 121.68 22.84C121.68 19 118.8 16.088 114.96 16.088C111.152 16.088 108.272 19 108.272 22.84C108.272 26.68 111.152 29.592 114.96 29.592ZM138.866 31.704C141.842 31.704 143.89 33.272 144.082 35.8L142.162 36.248C142.13 34.616 140.69 33.528 138.546 33.528H132.114C129.586 33.528 127.89 32.088 127.89 29.944C127.89 28.504 128.626 27.16 129.81 26.52C128.402 25.24 127.538 23.416 127.538 21.336C127.538 17.336 130.674 14.296 134.866 14.296C136.466 14.296 137.938 14.744 139.122 15.544C139.346 13.848 140.658 12.76 142.546 12.76H143.762V14.488H142.642C141.33 14.488 140.434 15.32 140.434 16.6V16.696C141.522 17.912 142.162 19.512 142.162 21.336C142.162 25.336 139.026 28.344 134.866 28.344C133.426 28.344 132.082 27.992 130.994 27.352C130.194 27.8 129.746 28.632 129.746 29.496C129.746 30.84 130.834 31.704 132.434 31.704H138.866ZM129.458 21.336C129.458 24.312 131.794 26.584 134.866 26.584C137.938 26.584 140.242 24.312 140.242 21.336C140.242 18.328 137.938 16.056 134.866 16.056C131.762 16.056 129.458 18.328 129.458 21.336ZM162.343 22.84C162.343 23.096 162.311 23.384 162.279 23.64H147.303C147.687 27.16 150.503 29.656 154.247 29.656C156.903 29.656 159.175 28.376 160.359 26.552L161.671 27.64C160.103 29.944 157.383 31.384 154.183 31.384C149.127 31.384 145.351 27.672 145.351 22.808C145.351 17.944 148.999 14.296 153.863 14.296C158.695 14.296 162.343 17.944 162.343 22.84ZM153.831 16.024C150.343 16.024 147.687 18.488 147.303 21.976H160.391C160.007 18.488 157.319 16.024 153.831 16.024ZM184.199 31H181.767L173.895 21.24L166.023 31H163.591L172.519 19.896L163.719 8.92H166.183L173.927 18.648L181.639 8.92H184.071L175.271 19.896L184.199 31Z" fill="white"/>
</svg>
