<svg width="250" height="250" viewBox="0 0 250 250" fill="none" xmlns="http://www.w3.org/2000/svg">
<path d="M125 15.625C64.6728 15.625 15.625 64.6728 15.625 125C15.625 185.327 64.6728 234.375 125 234.375C185.327 234.375 234.375 185.327 234.375 125C234.375 64.6728 185.327 15.625 125 15.625Z" fill="white"/>
<path d="M77.0996 153.517C74.7081 149.896 80.7235 144.416 78.2767 139.815C76.8663 137.162 74.561 135.508 71.7924 135.161C69.1353 134.827 66.3981 135.8 64.6535 137.701C61.8989 140.698 61.4706 144.779 62.0034 146.223C62.1984 146.752 62.5049 146.896 62.7242 146.927C64.2246 147.125 65.0688 143.274 65.5867 142.472C67.0189 140.262 70.2709 139.593 72.5167 141.045C76.7752 143.8 73.0827 148.252 73.4013 152.011C73.7113 155.672 75.9922 157.144 78.0399 157.298C80.0321 157.373 81.4251 156.267 81.7767 155.459C82.6196 153.53 79.0673 156.496 77.0996 153.517Z" fill="#121212"/>
<path d="M166.076 120.28C164.959 120.126 163.738 120.129 162.468 120.28C161.504 119.063 160.64 117.093 160.153 114.794C159.285 110.703 159.376 107.74 161.796 107.355C164.217 106.97 165.386 109.445 166.253 113.536C166.835 116.286 166.724 118.812 166.076 120.28Z" fill="#121212"/>
<path d="M139.567 122.714C139.663 123.64 139.697 124.577 139.669 125.44C142.012 125.578 143.67 126.69 144.112 127.396C144.338 127.76 144.247 127.997 144.175 128.107C143.932 128.484 143.412 128.426 142.324 128.304C141.373 128.197 140.35 128.104 139.286 128.152C138.707 129.928 136.99 130.094 135.784 128.781C134.942 129.037 133.287 130.094 132.794 128.946C132.79 128.376 133.386 127.547 134.465 126.816C133.728 125.411 133.234 123.907 132.943 122.349C131.413 122.625 130.037 123.053 128.958 123.389C128.451 123.547 126.447 124.452 126.212 123.432C126.055 122.727 127.152 121.565 128.312 120.726C129.608 119.807 131.045 119.153 132.536 118.776C132.504 116.557 133.069 115.008 134.682 114.752C136.68 114.434 137.919 115.973 138.776 118.822C141.192 119.494 143.605 121.158 144.669 122.878C145.083 123.545 145.164 124.061 144.895 124.333C144.226 125.026 140.517 123.015 139.567 122.714Z" fill="#121212"/>
<path d="M155.452 132.686C156.984 133.428 158.67 133.136 159.22 132.033C159.77 130.929 158.973 129.434 157.44 128.692C155.908 127.949 154.223 128.242 153.672 129.345C153.122 130.448 153.92 131.943 155.452 132.686Z" fill="#121212"/>
<path d="M162.993 127.206C163.02 125.519 164.055 124.171 165.298 124.192C166.541 124.216 167.526 125.598 167.499 127.282C167.471 128.967 166.437 130.314 165.194 130.293C163.95 130.273 162.965 128.891 162.993 127.206Z" fill="#121212"/>
<path fill-rule="evenodd" clip-rule="evenodd" d="M196.707 147.876C196.731 147.962 196.697 147.841 196.707 147.876C199.204 147.876 203.125 150.709 203.125 157.552C203.125 164.362 200.263 172.076 199.587 173.788C189.276 198.18 164.666 211.759 135.35 210.899C108.02 210.098 84.7125 195.863 74.5127 172.657C68.3453 172.664 61.9864 169.986 57.1528 165.758C52.0581 161.303 48.917 155.538 48.3041 149.526C47.827 144.845 48.4085 140.489 49.8955 136.691L44.167 131.898C17.9513 110.05 99.9445 20.091 126.167 42.6684C126.299 42.7819 135.089 51.293 135.11 51.3137C147.754 46.0144 181.632 35.925 181.67 59.4124C181.684 67.2121 176.648 76.3076 168.58 84.5609C177.905 93.0969 175.445 105.223 176.93 116.348L180.169 117.234C186.343 118.943 190.734 121.222 192.884 123.449C195.032 125.673 196.098 127.829 196.484 130.355C196.846 132.394 196.798 135.993 194.074 140.018C195.055 142.615 195.95 145.204 196.707 147.876ZM74.0495 166.329C74.9654 166.349 75.8743 166.291 76.7658 166.14C86.3461 164.527 88.8531 154.256 87.2758 144.17C85.493 132.782 77.6886 128.767 72.3919 128.482C70.9188 128.406 69.5502 128.537 68.422 128.76C58.9672 130.641 53.6287 138.581 54.6803 148.894C55.631 158.227 65.1938 166.095 74.0495 166.329ZM52.6362 131.559C55.8087 127.011 60.9939 123.721 66.8792 122.59C74.3699 102.742 86.8789 84.4547 103.434 71.8698C115.72 61.7533 128.97 54.4968 128.97 54.4968C128.97 54.4968 121.835 46.3294 119.68 45.7278C106.422 42.194 77.7896 61.6846 59.507 87.4383C52.1103 97.857 41.5203 116.309 46.5838 125.801C47.2071 126.977 50.7417 129.998 52.6362 131.559ZM160.121 161.77C160.141 161.984 160.009 162.204 159.818 162.283C159.818 162.283 149.165 167.174 132.244 162.008C132.852 167.08 139.003 169.002 143.301 169.698C164.268 173.259 183.871 161.423 188.283 158.443C189.041 157.931 188.273 159.247 188.137 159.44C182.735 166.318 168.214 174.283 149.322 174.28C141.082 174.276 132.847 171.412 129.823 167.009C125.133 160.179 129.591 150.207 137.409 151.245C150.623 152.718 164.171 151.611 176.405 146.006C187.071 141.118 191.1 135.742 190.495 131.387C189.555 124.637 179.548 123.581 174.489 121.941C172.288 121.222 171.202 120.648 170.955 116.561C170.847 114.777 170.533 108.552 170.418 105.977C170.216 101.47 169.666 95.307 165.794 92.7633C164.784 92.0992 163.663 91.7797 162.482 91.718C161.541 91.6726 160.982 91.8023 160.682 91.8719C160.615 91.8875 160.56 91.9 160.518 91.907C158.427 92.2578 157.145 93.3156 155.634 94.5633C155.548 94.6351 155.459 94.7078 155.371 94.7805C150.541 98.7547 146.463 99.4039 141.925 99.2117C140.512 99.1523 139.055 99.0117 137.519 98.8625C136.105 98.7258 134.625 98.582 133.048 98.4898L131.123 98.3797C123.524 97.9945 115.375 104.471 114.02 113.67C112.507 123.937 118.246 130.227 121.978 134.316C122.901 135.327 123.701 136.203 124.238 136.973C124.583 137.437 124.984 138.09 124.984 138.712C124.984 139.455 124.495 140.042 124.019 140.544C116.266 148.412 113.788 160.915 116.709 171.334C117.075 172.633 117.538 173.877 118.084 175.066C124.938 190.876 146.202 198.239 166.97 191.542C181.527 186.849 194.388 175.508 197.006 159.862C197.63 155.786 196.714 154.212 195.467 153.452C194.148 152.651 192.566 152.929 192.566 152.929C192.566 152.929 191.845 148.059 189.805 143.631C183.749 148.347 175.955 151.661 170.021 153.341C160.514 156.034 150.244 157.082 140.42 155.812C136.434 155.298 133.757 154.952 132.609 158.632C145.714 163.369 159.584 161.341 159.584 161.341C159.852 161.313 160.093 161.505 160.121 161.77ZM122.313 69.8486C115.145 73.4683 107.143 79.9133 100.645 87.3281C100.415 87.593 100.756 87.957 101.038 87.7547C106.652 83.7226 114.348 79.9758 124.43 77.5486C135.723 74.8295 146.595 75.9708 153.236 77.473C153.57 77.5486 153.779 76.9814 153.484 76.8164C149.095 74.3861 142.36 72.7361 137.583 72.7017C137.349 72.6983 137.217 72.4301 137.356 72.2445C138.181 71.148 139.313 70.0651 140.348 69.2814C140.577 69.1026 140.438 68.7349 140.145 68.752C134.202 69.1123 120.627 75.3023 120.676 75.077C121.023 73.427 122.12 71.2476 122.688 70.2301C122.824 69.9895 122.559 69.7248 122.313 69.8486Z" fill="#121212"/>
</svg>
