<svg width="495" height="250" viewBox="0 0 495 250" fill="none" xmlns="http://www.w3.org/2000/svg">
<g clip-path="url(#clip0_181_942)">
<path d="M84.08 65.7782C77.8741 61.5119 69.7759 59.3735 59.7854 59.3735H21.1075C18.0448 59.3735 16.3527 60.9052 16.0313 63.965L0.31885 162.592C0.155556 163.561 0.39791 164.447 1.0437 165.252C1.68579 166.06 2.4934 166.461 3.46061 166.461H21.8323C25.0546 166.461 26.8258 164.933 27.1509 161.868L31.5014 135.279C31.6603 133.99 32.227 132.942 33.1942 132.136C34.1607 131.33 35.3695 130.803 36.82 130.562C38.2704 130.322 39.6381 130.202 40.9297 130.202C42.2175 130.202 43.7478 130.283 45.5233 130.444C47.2945 130.605 48.4235 130.683 48.9074 130.683C62.7661 130.683 73.644 126.778 81.542 118.96C89.4363 111.145 93.3878 100.307 93.3878 86.4457C93.3878 76.9377 90.283 70.0483 84.08 65.7753V65.7782ZM64.1374 95.3929C63.3291 101.034 61.2366 104.739 57.8524 106.512C54.4676 108.288 49.633 109.17 43.3488 109.17L35.371 109.413L39.4814 83.5463C39.8021 81.7752 40.8491 80.8885 42.6232 80.8885H47.2176C53.6607 80.8885 58.3372 81.8173 61.238 83.6675C64.1374 85.5221 65.1046 89.4323 64.1374 95.3929Z" fill="#DBDBDB"/>
<path d="M492.251 59.3721H474.364C472.587 59.3721 471.541 60.2587 471.222 62.0313L455.508 162.594L455.266 163.077C455.266 163.887 455.589 164.649 456.234 165.375C456.876 166.098 457.685 166.461 458.651 166.461H474.608C477.665 166.461 479.358 164.933 479.684 161.869L495.397 62.9985V62.7584C495.395 60.5026 494.345 59.3743 492.251 59.3743V59.3721Z" fill="white"/>
<path d="M276.141 98.2967C276.141 97.4928 275.818 96.7258 275.176 96.0017C274.53 95.2769 273.804 94.9126 273 94.9126H254.387C252.611 94.9126 251.161 95.7224 250.035 97.3295L224.411 135.042L213.775 98.7814C212.966 96.2042 211.195 94.9126 208.457 94.9126H190.325C189.517 94.9126 188.791 95.2761 188.151 96.0017C187.504 96.7258 187.184 97.4935 187.184 98.2967C187.184 98.6218 188.755 103.374 191.897 112.559C195.039 121.747 198.424 131.658 202.05 142.295C205.677 152.931 207.568 158.574 207.731 159.214C194.515 177.265 187.909 186.936 187.909 188.223C187.909 190.32 188.956 191.366 191.052 191.366H209.665C211.438 191.366 212.887 190.563 214.017 188.95L275.66 99.9873C275.98 99.6673 276.141 99.1058 276.141 98.296V98.2967Z" fill="#DBDBDB"/>
<path d="M449.47 94.9125H431.097C428.839 94.9125 427.474 97.5718 426.99 102.89C422.795 96.4472 415.145 93.2197 404.023 93.2197C392.419 93.2197 382.547 97.5718 374.41 106.274C366.271 114.978 362.203 125.213 362.203 136.976C362.203 146.486 364.982 154.06 370.542 159.698C376.101 165.343 383.554 168.159 392.905 168.159C397.577 168.159 402.331 167.191 407.165 165.258C412.001 163.325 415.784 160.748 418.529 157.523C418.529 157.685 418.365 158.408 418.045 159.697C417.72 160.988 417.561 161.958 417.561 162.598C417.561 165.179 418.606 166.465 420.705 166.465H437.386C440.443 166.465 442.219 164.937 442.701 161.872L452.613 98.7791C452.772 97.8119 452.531 96.9267 451.888 96.1199C451.241 95.3167 450.437 94.9125 449.47 94.9125ZM417.923 142.535C413.814 146.565 408.858 148.579 403.057 148.579C398.381 148.579 394.597 147.292 391.695 144.711C388.793 142.138 387.342 138.592 387.342 134.074C387.342 128.116 389.357 123.077 393.387 118.967C397.411 114.857 402.412 112.803 408.375 112.803C412.884 112.803 416.631 114.133 419.615 116.79C422.594 119.45 424.089 123.117 424.089 127.791C424.088 133.592 422.032 138.508 417.923 142.535Z" fill="white"/>
<path d="M174.854 94.9125H156.482C154.223 94.9125 152.856 97.5718 152.372 102.89C148.02 96.4472 140.365 93.2197 129.406 93.2197C117.803 93.2197 107.931 97.5718 99.7931 106.274C91.6535 114.978 87.5859 125.213 87.5859 136.976C87.5859 146.486 90.3664 154.06 95.9265 159.698C101.487 165.343 108.938 168.159 118.287 168.159C122.797 168.159 127.473 167.191 132.307 165.258C137.142 163.325 141.01 160.748 143.911 157.523C143.264 159.456 142.943 161.149 142.943 162.598C142.943 165.179 143.991 166.465 146.086 166.465H162.766C165.825 166.465 167.6 164.937 168.084 161.872L177.995 98.7791C178.154 97.8119 177.912 96.9267 177.27 96.1199C176.625 95.3167 175.82 94.9125 174.854 94.9125ZM143.307 142.655C139.197 146.609 134.158 148.579 128.199 148.579C123.523 148.579 119.776 147.292 116.958 144.711C114.136 142.138 112.727 138.592 112.727 134.074C112.727 128.116 114.74 123.077 118.771 118.967C122.797 114.857 127.793 112.803 133.758 112.803C138.269 112.803 142.015 114.133 145 116.791C147.979 119.45 149.472 123.118 149.472 127.792C149.472 133.754 147.417 138.711 143.307 142.655Z" fill="#DBDBDB"/>
<path d="M358.694 65.7782C352.489 61.5119 344.392 59.3735 334.4 59.3735H295.963C292.739 59.3735 290.965 60.9052 290.645 63.965L274.932 162.592C274.769 163.561 275.011 164.447 275.657 165.253C276.296 166.059 277.107 166.461 278.074 166.461H297.895C299.829 166.461 301.118 165.414 301.763 163.319L306.116 135.279C306.275 133.99 306.84 132.942 307.808 132.136C308.775 131.33 309.982 130.803 311.434 130.562C312.884 130.322 314.251 130.202 315.544 130.202C316.832 130.202 318.362 130.283 320.135 130.444C321.908 130.605 323.04 130.683 323.519 130.683C337.381 130.683 348.257 126.778 356.155 118.96C364.052 111.145 368 100.307 368 86.4457C368.001 76.9384 364.897 70.049 358.694 65.776V65.7782ZM333.916 105.545C330.37 107.962 325.052 109.17 317.962 109.17L310.226 109.413L314.336 83.5463C314.655 81.7752 315.702 80.8885 317.477 80.8885H321.827C325.372 80.8885 328.192 81.0496 330.291 81.371C332.382 81.6961 334.4 82.7003 336.334 84.3923C338.268 86.0851 339.235 88.5434 339.235 91.7664C339.235 98.5346 337.46 103.127 333.916 105.545Z" fill="white"/>
</g>
<defs>
<clipPath id="clip0_181_942">
<rect width="495" height="250" fill="white"/>
</clipPath>
</defs>
</svg>
