<svg width="250" height="250" viewBox="0 0 250 250" fill="none" xmlns="http://www.w3.org/2000/svg">
<path d="M207 49.0925C206.828 47.8425 205.733 47.1507 204.828 47.0745C203.925 46.9992 184.808 45.5822 184.808 45.5822C184.808 45.5822 171.532 32.4016 170.075 30.9427C168.617 29.4846 165.769 29.9281 164.664 30.2535C164.501 30.3014 161.763 31.1464 157.234 32.548C152.799 19.786 144.972 8.05826 131.202 8.05826C130.822 8.05826 130.431 8.07367 130.039 8.09593C126.123 2.91699 121.272 0.666992 117.082 0.666992C85.0061 0.666992 69.6816 40.7655 64.8768 61.1422C52.4128 65.0043 43.5583 67.75 42.4273 68.1053C35.4701 70.2877 35.2501 70.5069 34.3366 77.0625C33.6491 82.0257 15.4453 222.804 15.4453 222.804L157.293 249.381L234.151 232.754C234.151 232.754 207.17 50.3425 207 49.0925ZM149.394 34.9726L137.391 38.6875C137.396 37.8417 137.4 37.0095 137.4 36.0994C137.4 28.1679 136.299 21.7817 134.533 16.7192C141.628 17.6096 146.353 25.6824 149.394 34.9726ZM125.731 18.292C127.704 23.2346 128.986 30.328 128.986 39.8999C128.986 40.3896 128.982 40.8374 128.978 41.2903C121.172 43.7081 112.69 46.3331 104.189 48.9667C108.962 30.5454 117.909 21.6482 125.731 18.292ZM116.201 9.27059C117.586 9.27059 118.98 9.74062 120.315 10.6593C110.035 15.4966 99.0164 27.6798 94.3631 52.0095L74.7689 58.078C80.2193 39.5206 93.1619 9.27059 116.201 9.27059Z" fill="white"/>
<path d="M204.825 47.0747C203.922 46.9994 184.805 45.5824 184.805 45.5824C184.805 45.5824 171.529 32.4018 170.072 30.9429C169.526 30.4001 168.791 30.1218 168.022 30.002L157.297 249.38L234.148 232.755C234.148 232.755 207.167 50.3427 206.997 49.0927C206.825 47.8427 205.73 47.1509 204.825 47.0747Z" fill="#DBDBDB"/>
<path d="M131.202 89.5422L121.725 117.732C121.725 117.732 113.422 113.301 103.244 113.301C88.3227 113.301 87.5718 122.665 87.5718 125.024C87.5718 137.899 121.133 142.832 121.133 172.99C121.133 196.717 106.085 211.995 85.7936 211.995C61.4442 211.995 48.9922 196.841 48.9922 196.841L55.5119 175.3C55.5119 175.3 68.3115 186.289 79.1121 186.289C86.1694 186.289 89.0401 180.732 89.0401 176.672C89.0401 159.878 61.5059 159.129 61.5059 131.532C61.5059 108.305 78.1771 85.8281 111.83 85.8281C124.796 85.8281 131.202 89.5422 131.202 89.5422Z" fill="#121212"/>
</svg>
