<svg width="325" height="250" viewBox="0 0 325 250" fill="none" xmlns="http://www.w3.org/2000/svg">
<path d="M22.8263 110.384C22.8263 106.865 25.7134 105.512 30.4952 105.512C37.3521 105.512 46.0134 107.587 52.8703 111.286V90.0838C45.3818 87.1065 37.9836 85.9336 30.4952 85.9336C12.18 85.9336 0 95.4972 0 111.467C0 136.368 34.2845 132.398 34.2845 143.135C34.2845 147.285 30.6756 148.638 25.6231 148.638C18.1347 148.638 8.57112 145.571 0.992446 141.42V162.893C9.38312 166.502 17.864 168.036 25.6231 168.036C44.3894 168.036 57.2912 158.743 57.2912 142.593C57.201 115.707 22.8263 120.489 22.8263 110.384ZM83.8166 67.8891L61.8023 72.5807L61.7121 144.849C61.7121 158.202 71.7268 168.036 85.0797 168.036C92.4779 168.036 97.8913 166.683 100.869 165.059V146.743C97.9815 147.916 83.7263 152.067 83.7263 138.714V106.685H100.869V87.4674H83.7263L83.8166 67.8891ZM128.928 94.1438L127.484 87.4674H107.996V166.412H130.552V112.91C135.875 105.963 144.897 107.226 147.694 108.219V87.4674C144.807 86.3847 134.251 84.3998 128.928 94.1438ZM153.198 87.4674H175.843V166.412H153.198V87.4674ZM153.198 80.6105L175.843 75.7385V57.4233L153.198 62.2051V80.6105ZM222.939 85.9336C214.098 85.9336 208.414 90.0838 205.256 92.9709L204.083 87.3772H184.234V192.576L206.79 187.795L206.88 162.262C210.128 164.607 214.91 167.946 222.849 167.946C238.999 167.946 253.705 154.954 253.705 126.353C253.615 100.189 238.728 85.9336 222.939 85.9336ZM217.526 148.097C212.203 148.097 209.045 146.202 206.88 143.856L206.79 110.384C209.135 107.767 212.383 105.963 217.526 105.963C225.736 105.963 231.42 115.166 231.42 126.985C231.42 139.075 225.827 148.097 217.526 148.097ZM324.8 127.255C324.8 104.159 313.613 85.9336 292.23 85.9336C270.757 85.9336 257.765 104.159 257.765 127.075C257.765 154.232 273.103 167.946 295.117 167.946C305.854 167.946 313.974 165.51 320.109 162.081V144.037C313.974 147.104 306.936 148.999 298.004 148.999C289.253 148.999 281.494 145.931 280.501 135.285H324.62C324.62 134.112 324.8 129.421 324.8 127.255ZM280.231 118.684C280.231 108.489 286.456 104.249 292.14 104.249C297.644 104.249 303.508 108.489 303.508 118.684H280.231Z" fill="white"/>
</svg>
