<svg width="6" height="10" viewBox="0 0 6 10" fill="#121212" xmlns="http://www.w3.org/2000/svg">
<path d="M5.59189 4.40811C5.66769 4.4873 5.72712 4.58068 5.76675 4.68288C5.85003 4.8856 5.85003 5.11298 5.76675 5.3157C5.72712 5.4179 5.66769 5.51128 5.59189 5.59047L1.42865 9.7537C1.35125 9.83175 1.25916 9.89369 1.15769 9.93596C1.05623 9.97824 0.947395 10 0.837475 10C0.727556 10 0.618724 9.97824 0.517259 9.93596C0.415793 9.89369 0.323701 9.83175 0.246295 9.7537C0.168253 9.6763 0.106309 9.58421 0.0640364 9.48274C0.021764 9.38128 0 9.27244 0 9.16253C0 9.05261 0.021764 8.94377 0.0640364 8.84231C0.106309 8.74084 0.168253 8.64875 0.246295 8.57135L2.99403 5.83194L3.82668 4.99929L2.99403 4.16664L0.246295 1.42723C0.0895049 1.27044 0.00142145 1.05779 0.00142145 0.836054C0.00142145 0.726262 0.0230459 0.617545 0.0650616 0.51611C0.107077 0.414675 0.168661 0.322509 0.246295 0.244875C0.403086 0.0880841 0.61574 0 0.837475 0C0.947267 0 1.05598 0.0216254 1.15742 0.0636411C1.25885 0.105657 1.35102 0.16724 1.42865 0.244875L5.59189 4.40811Z" fill="#121212"/>
</svg>
