<svg width="6" height="10" viewBox="0 0 6 10" fill="none" xmlns="http://www.w3.org/2000/svg">
<path d="M0.237212 5.59189C0.161407 5.5127 0.101985 5.41932 0.0623555 5.31712C-0.0209241 5.1144 -0.0209241 4.88702 0.0623555 4.6843C0.101985 4.5821 0.161407 4.48872 0.237212 4.40953L4.40045 0.246296C4.47785 0.168253 4.56994 0.106308 4.67141 0.0640354C4.77288 0.0217628 4.88171 0 4.99163 0C5.10155 0 5.21038 0.0217628 5.31184 0.0640354C5.41331 0.106308 5.5054 0.168253 5.58281 0.246296C5.66085 0.323701 5.72279 0.415792 5.76507 0.517258C5.80734 0.618724 5.8291 0.727555 5.8291 0.837475C5.8291 0.947394 5.80734 1.05623 5.76507 1.15769C5.72279 1.25916 5.66085 1.35125 5.58281 1.42865L2.83507 4.16806L2.00242 5.00071L2.83507 5.83336L5.58281 8.57277C5.7396 8.72956 5.82768 8.94221 5.82768 9.16395C5.82768 9.27374 5.80606 9.38246 5.76404 9.48389C5.72202 9.58532 5.66044 9.67749 5.58281 9.75513C5.42602 9.91192 5.21336 10 4.99163 10C4.88183 10 4.77312 9.97837 4.67168 9.93636C4.57025 9.89434 4.47808 9.83276 4.40045 9.75513L0.237212 5.59189Z" fill="#121212"/>
</svg>
