<svg width="560" height="250" viewBox="0 0 560 250" fill="none" xmlns="http://www.w3.org/2000/svg">
<path d="M87.6641 61.6294H105.536V80.4553H87.6641V61.6294Z" fill="white"/>
<path d="M400.582 61.6294H418.454V80.4553H400.582V61.6294Z" fill="white"/>
<path d="M48.1649 87.2114C36.8999 87.2114 30.3854 92.2665 27.2426 95.7587C26.8691 92.7501 24.8846 88.8465 17.1394 88.8465H0.320312V106.45H7.21352C8.38046 106.45 8.75568 106.822 8.75568 107.987V188.37H28.8036V158.2C28.8036 157.386 28.7882 156.625 28.7675 155.944C31.8983 158.82 37.8793 162.78 47.2217 162.78C66.817 162.78 80.5174 147.247 80.5174 124.999C80.5174 102.399 67.5089 87.2114 48.1649 87.2114ZM44.0926 145.318C33.2993 145.318 28.3957 134.984 28.3957 125.409C28.3957 110.328 36.6435 104.953 44.3594 104.953C53.824 104.953 60.1889 113.113 60.1889 125.268C60.1889 139.128 52.0977 145.318 44.0926 145.318Z" fill="#DBDBDB"/>
<path d="M106.908 142.143V99.5495C106.908 92.3482 103.438 88.8457 96.33 88.8457H78.418V106.45H85.3181C86.4798 106.45 86.8533 106.821 86.8533 107.985V150.437C86.8533 157.74 90.2165 161.139 97.4143 161.139H115.349V143.688H108.447C107.337 143.688 106.908 143.246 106.908 142.143Z" fill="#DBDBDB"/>
<path d="M159.285 87.2114C148.017 87.2114 141.511 92.2665 138.354 95.7587C137.981 92.7501 136.006 88.8465 128.263 88.8465H111.434V106.45H118.334C119.495 106.45 119.872 106.822 119.872 107.987V188.37H139.929V158.2C139.929 157.386 139.908 156.625 139.883 155.944C143.001 158.82 149.001 162.78 158.34 162.78C177.937 162.78 191.631 147.247 191.631 124.999C191.631 102.399 178.631 87.2114 159.285 87.2114ZM155.196 145.318C144.432 145.318 139.511 134.984 139.511 125.409C139.511 110.328 147.757 104.953 155.48 104.953C164.942 104.953 171.306 113.113 171.306 125.268C171.306 139.128 163.223 145.318 155.196 145.318Z" fill="#DBDBDB"/>
<path d="M228.573 87.2114C206.976 87.2114 191.875 102.753 191.875 124.999C191.875 146.885 208.171 162.78 230.623 162.78C248.287 162.78 259.079 152.324 259.535 151.882L260.341 151.087L251.611 136.593L250.312 137.822C250.229 137.884 242.305 145.187 231.838 145.187C221.792 145.187 214.438 139.056 212.704 129.436H260.241L260.354 128.123C260.385 127.942 260.783 123.676 260.783 121.591C260.783 101.031 247.838 87.2114 228.573 87.2114ZM213.45 114.564C215.625 107.469 221.062 103.449 228.573 103.449C234.608 103.449 239.258 108.039 240.074 114.564H213.45Z" fill="#DBDBDB"/>
<path d="M333.695 142.143V72.3315C333.695 65.1354 330.177 61.6294 322.978 61.6294H305.061V79.2333H311.959C313.119 79.2333 313.503 79.6085 313.503 80.7738V93.3932C310.544 90.7203 304.764 87.2109 294.818 87.2109C275.364 87.2109 261.789 102.753 261.789 124.999C261.789 147.599 274.798 162.78 294.142 162.78C305.203 162.78 311.577 157.644 314.69 154.069C315.097 157.189 317.115 161.139 324.618 161.139H341.986V143.69H335.232C334.12 143.69 333.695 143.246 333.695 142.143ZM297.945 145.317C288.412 145.317 282.243 137.339 282.243 124.999C282.243 113.004 288.661 104.953 298.219 104.953C309.054 104.953 313.911 114.944 313.911 124.868C313.911 139.952 305.656 145.317 297.945 145.317Z" fill="#DBDBDB"/>
<path d="M386.702 87.8892C378.36 87.8892 370.676 92.7049 366.124 100.378V98.7255C366.124 92.1748 362.506 88.8444 355.41 88.8444H338.176V106.45H345.067C346.229 106.45 346.613 106.82 346.613 107.987V161.141H366.657V132.207C366.657 128.396 367.143 124.727 368.091 121.338C371.107 111.361 379.127 107.808 385.612 107.808C387.912 107.808 389.588 108.052 389.612 108.059L391.289 108.312V88.3849L390.068 88.1783C390.007 88.1663 388.309 87.8892 386.702 87.8892Z" fill="#DBDBDB"/>
<path d="M419.822 142.143V99.5495C419.822 92.3482 416.371 88.8457 409.257 88.8457H393.051V106.45H398.231C399.4 106.45 399.772 106.821 399.772 107.985V150.437C399.772 157.74 403.137 161.139 410.347 161.139H428.266V143.688H421.364C420.252 143.688 419.822 143.246 419.822 142.143Z" fill="#DBDBDB"/>
<path d="M495.148 106.45V88.8457H484.451C478.203 88.8457 474.85 91.0109 472.871 96.3344L459.802 132.835C459.351 134.189 458.926 135.706 458.566 137.162C458.184 135.699 457.735 134.164 457.239 132.807L444.171 96.3224C442.166 90.9438 438.928 88.8457 432.593 88.8457H421.223V106.45H424.174C425.737 106.45 426.24 106.98 426.613 107.959L446.842 161.139H469.382L489.614 107.959C489.984 106.98 490.501 106.45 492.069 106.45H495.148Z" fill="#DBDBDB"/>
<path d="M559.574 128.123C559.592 127.942 559.998 123.676 559.998 121.591C559.998 101.031 547.048 87.2114 527.778 87.2114C506.181 87.2114 491.09 102.753 491.09 124.999C491.09 146.885 507.367 162.78 529.826 162.78C547.492 162.78 558.29 152.324 558.74 151.882L559.556 151.087L550.841 136.593L549.516 137.822C549.447 137.884 541.482 145.187 531.053 145.187C521 145.187 513.644 139.056 511.905 129.436H559.457L559.574 128.123ZM512.656 114.564C514.849 107.469 520.269 103.449 527.778 103.449C533.828 103.449 538.461 108.039 539.282 114.564H512.656Z" fill="#DBDBDB"/>
<path d="M386.697 87.8892C380.217 87.8892 374.182 90.8203 369.652 95.698C373.478 95.6636 377.33 95.6326 381.181 95.6326C384.564 95.6326 387.919 95.6636 391.284 95.6843V88.3849L390.063 88.1783C390.002 88.1663 388.304 87.8892 386.697 87.8892Z" fill="white"/>
<path d="M472.871 96.3344L472.047 98.6545C479.799 99.1881 487.489 99.7767 495.148 100.434V88.8457H484.453C478.205 88.8457 474.851 91.0109 472.871 96.3344Z" fill="white"/>
<path d="M48.1649 87.2114C36.8999 87.2114 30.3837 92.2664 27.2426 95.7569C26.8674 92.7501 24.8846 88.8465 17.1394 88.8465H0.320312V106.45H7.21352C8.38046 106.45 8.75568 106.822 8.75568 107.986V152.78C17.969 149.576 27.4078 146.486 37.029 143.515C31.1375 140.144 28.3957 132.567 28.3957 125.407C28.3957 110.328 36.6435 104.953 44.3594 104.953C53.824 104.953 60.1889 113.113 60.1889 125.268C60.1889 130.373 59.0804 134.421 57.2921 137.516C64.7809 135.395 72.3729 133.338 80.0819 131.359C80.3315 129.306 80.5174 127.192 80.5174 124.999C80.5174 102.399 67.5089 87.2114 48.1649 87.2114Z" fill="white"/>
<path d="M96.33 88.8457H78.418V106.45H85.3181C86.4781 106.45 86.8516 106.821 86.8516 107.987V129.67C93.4608 128.024 100.135 126.427 106.908 124.888V99.5495C106.908 92.35 103.438 88.8457 96.33 88.8457Z" fill="white"/>
<path d="M87.6641 61.6294H105.536V80.4553H87.6641V61.6294Z" fill="white"/>
<path d="M159.285 87.2114C148.017 87.2114 141.511 92.2664 138.354 95.7569C137.979 92.7501 136.006 88.8465 128.261 88.8465H111.434V106.45H118.332C119.494 106.45 119.872 106.822 119.872 107.986V122.029C126.65 120.591 133.523 119.197 140.437 117.857C142.733 108.552 149.242 104.953 155.478 104.953C161.123 104.953 165.621 107.896 168.364 112.815C175.283 111.662 182.249 110.55 189.274 109.499C184.708 95.7328 173.772 87.2114 159.285 87.2114Z" fill="white"/>
<path d="M228.581 87.2114C212.802 87.2114 200.527 95.5194 195.043 108.666C203.564 107.438 212.174 106.292 220.859 105.228C223.081 104.07 225.667 103.45 228.581 103.45C229.686 103.45 230.712 103.657 231.707 103.941C239.586 103.049 247.538 102.228 255.552 101.476C250.042 92.5349 240.531 87.2114 228.581 87.2114Z" fill="white"/>
<path d="M322.983 61.6294H305.066V79.2333H311.964C313.122 79.2333 313.508 79.6085 313.508 80.7738V93.3933C310.549 90.7203 304.77 87.2109 294.823 87.2109C283.935 87.2109 274.892 92.08 269.035 100.28C290.221 98.4965 311.79 97.2177 333.701 96.4483V72.3315C333.701 65.1354 330.183 61.6294 322.983 61.6294Z" fill="white"/>
<path d="M355.413 88.8457H338.176V96.3224C347.322 96.0315 356.509 95.8233 365.776 95.7183C364.761 91.1727 361.31 88.8457 355.413 88.8457Z" fill="white"/>
<path d="M400.582 61.6294H418.454V80.4553H400.582V61.6294Z" fill="white"/>
<path d="M409.257 88.8457H393.051V95.6959C401.903 95.7751 410.713 95.9368 419.476 96.1761C418.479 91.2794 415.138 88.8457 409.257 88.8457Z" fill="white"/>
<path d="M432.593 88.8457H421.223V96.2294C429.006 96.4601 436.742 96.7441 444.434 97.0952L444.171 96.3224C442.166 90.9438 438.928 88.8457 432.593 88.8457Z" fill="white"/>
<path d="M527.776 87.2114C515.461 87.2114 505.282 92.2768 498.781 100.743C508.196 101.569 517.554 102.497 526.807 103.518C528.232 103.674 529.631 103.819 531.034 103.982C539.963 104.993 548.796 106.103 557.553 107.297C552.967 94.8878 542.125 87.2114 527.776 87.2114Z" fill="white"/>
</svg>
