<svg width="356" height="250" viewBox="0 0 356 250" fill="none" xmlns="http://www.w3.org/2000/svg">
<g clip-path="url(#clip0_181_966)">
<path fill-rule="evenodd" clip-rule="evenodd" d="M148.122 27.2064C159.588 15.2597 175.55 7.85053 193.205 7.85053C216.673 7.85053 237.148 20.9368 248.051 40.3636C257.527 36.1298 268.015 33.7749 279.05 33.7749C321.378 33.7749 355.694 68.3895 355.694 111.087C355.694 153.789 321.378 188.404 279.05 188.404C273.885 188.404 268.835 187.887 263.953 186.9C254.351 204.028 236.054 215.6 215.052 215.6C206.261 215.6 197.945 213.569 190.541 209.958C180.807 232.854 158.129 248.908 131.698 248.908C104.174 248.908 80.7158 231.491 71.7114 207.066C67.7764 207.902 63.6996 208.337 59.5165 208.337C26.7452 208.337 0.177734 181.496 0.177734 148.381C0.177734 126.189 12.1144 106.813 29.8496 96.4459C26.1983 88.0442 24.1675 78.7714 24.1675 69.0226C24.1675 30.9388 55.0852 0.0666504 93.2196 0.0666504C115.609 0.0666504 135.507 10.7119 148.122 27.2064ZM51.671 129.109C51.4866 129.591 51.6629 129.758 51.7693 129.858C51.7915 129.879 51.8107 129.897 51.8229 129.914C52.3514 130.299 52.8863 130.598 53.425 130.899L53.4252 130.899L53.4283 130.901C53.5698 130.98 53.7117 131.059 53.8537 131.14C57.4798 133.065 60.9032 133.627 64.4837 133.627C71.7764 133.627 76.3039 129.747 76.3039 123.503V123.381C76.3039 117.608 71.194 115.512 66.398 113.997L65.7751 113.795L65.7715 113.794C62.1571 112.619 59.0396 111.606 59.0396 109.227V109.1C59.0396 107.064 60.8627 105.565 63.6886 105.565C66.8285 105.565 70.5559 106.608 72.9564 107.935C72.9564 107.935 73.6603 108.391 73.9186 107.707C74.0604 107.343 75.2758 104.071 75.4024 103.717C75.5392 103.332 75.2961 103.048 75.0479 102.896C72.3081 101.23 68.52 100.091 64.6002 100.091L63.8709 100.096C57.1962 100.096 52.537 104.127 52.537 109.905V110.027C52.537 116.119 57.6773 118.094 62.4934 119.472L63.2683 119.71L63.2789 119.713C66.784 120.79 69.8013 121.718 69.8013 124.187V124.308C69.8013 126.567 67.8363 128.248 64.666 128.248C63.4354 128.248 59.5106 128.223 55.2717 125.544C54.9779 125.372 54.7543 125.227 54.5423 125.09L54.5419 125.09L54.5413 125.089L54.5406 125.089L54.5399 125.089L54.5393 125.088L54.5387 125.088C54.3829 124.987 54.2332 124.89 54.0664 124.789C53.8588 124.658 53.3371 124.43 53.1092 125.119L51.671 129.109ZM158.53 129.858C158.424 129.758 158.247 129.591 158.432 129.109L159.87 125.119C160.083 124.465 160.7 124.703 160.832 124.789C160.915 124.843 160.994 124.894 161.072 124.945L161.075 124.947L161.075 124.947L161.076 124.948C161.36 125.133 161.633 125.31 162.032 125.544C166.271 128.223 170.196 128.248 171.427 128.248C174.597 128.248 176.567 126.567 176.567 124.308V124.187C176.567 121.719 173.548 120.792 170.046 119.715L170.029 119.71L169.254 119.472C164.438 118.094 159.298 116.119 159.298 110.027V109.905C159.298 104.127 163.957 100.096 170.632 100.096L171.361 100.091C175.281 100.091 179.069 101.23 181.809 102.896C182.057 103.048 182.3 103.332 182.163 103.717C182.037 104.071 180.821 107.343 180.679 107.707C180.421 108.391 179.717 107.935 179.717 107.935C177.317 106.608 173.589 105.565 170.449 105.565C167.623 105.565 165.8 107.064 165.8 109.1V109.227C165.8 111.606 168.918 112.619 172.532 113.794L172.536 113.795L173.159 113.997C177.955 115.512 183.065 117.608 183.065 123.381V123.503C183.065 129.747 178.537 133.627 171.244 133.627C167.664 133.627 164.24 133.065 160.614 131.14C160.561 131.109 160.507 131.079 160.453 131.049C160.404 131.021 160.355 130.993 160.305 130.966L160.191 130.902L160.191 130.902L160.19 130.902L160.19 130.901L160.19 130.901L160.186 130.899C159.647 130.598 159.112 130.299 158.584 129.914C158.577 129.906 158.57 129.897 158.56 129.887C158.551 129.878 158.541 129.868 158.53 129.858ZM231.315 116.878C231.315 120.408 230.657 123.188 229.36 125.153C228.079 127.098 226.139 128.045 223.435 128.045C220.726 128.045 218.796 127.103 217.535 125.153C216.259 123.193 215.611 120.408 215.611 116.878C215.611 113.353 216.259 110.578 217.535 108.633C218.796 106.709 220.726 105.772 223.435 105.772C226.139 105.772 228.079 106.709 229.365 108.633C230.657 110.578 231.315 113.353 231.315 116.878ZM237.402 110.335C236.805 108.314 235.873 106.532 234.632 105.048C233.391 103.559 231.821 102.364 229.958 101.493C228.099 100.627 225.901 100.186 223.435 100.186C220.964 100.186 218.766 100.627 216.907 101.493C215.043 102.364 213.473 103.559 212.228 105.048C210.992 106.537 210.06 108.319 209.457 110.335C208.865 112.345 208.566 114.543 208.566 116.878C208.566 119.213 208.865 121.416 209.457 123.421C210.06 125.437 210.987 127.219 212.233 128.708C213.473 130.197 215.048 131.387 216.907 132.233C218.771 133.079 220.964 133.509 223.435 133.509C225.901 133.509 228.094 133.079 229.958 132.233C231.816 131.387 233.391 130.197 234.632 128.708C235.873 127.224 236.805 125.442 237.402 123.421C238 121.411 238.299 119.208 238.299 116.878C238.299 114.548 238 112.345 237.402 110.335ZM286.616 126.733C286.616 126.733 287.188 126.51 287.391 127.102L288.885 131.23C289.077 131.741 288.636 131.954 288.636 131.954C286.337 132.86 283.137 133.493 280.017 133.493C274.74 133.493 270.693 131.969 267.999 128.971C265.31 125.983 263.948 121.901 263.948 116.852C263.948 114.517 264.282 112.309 264.94 110.299C265.604 108.283 266.596 106.501 267.903 105.012C269.21 103.523 270.861 102.328 272.805 101.462C274.755 100.591 277.034 100.155 279.592 100.155C281.303 100.155 282.843 100.261 284.16 100.464C285.567 100.677 287.431 101.178 288.221 101.487C288.363 101.543 288.758 101.74 288.596 102.201C288.21 103.306 287.904 104.15 287.58 105.041L287.573 105.063L287.566 105.082L287.562 105.091L287.556 105.107C287.412 105.506 287.263 105.916 287.102 106.364C286.874 106.992 286.393 106.784 286.393 106.784C284.387 106.151 282.473 105.863 279.961 105.863C276.948 105.863 274.689 106.87 273.205 108.835C271.711 110.81 270.881 113.403 270.871 116.852C270.861 120.64 271.803 123.441 273.484 125.173C275.16 126.905 277.5 127.781 280.447 127.781C281.648 127.781 282.767 127.7 283.785 127.543C284.787 127.386 285.729 127.072 286.616 126.733ZM298.041 113.497C298.33 111.537 298.872 109.906 299.707 108.635C300.968 106.705 302.893 105.647 305.597 105.647C308.302 105.647 310.089 106.71 311.371 108.635C312.221 109.906 312.591 111.608 312.738 113.497H298.041ZM318.537 109.187C318.02 107.237 316.739 105.267 315.898 104.366C314.571 102.937 313.275 101.94 311.988 101.383C310.307 100.664 308.291 100.187 306.083 100.187C303.511 100.187 301.176 100.618 299.282 101.509C297.383 102.401 295.788 103.616 294.537 105.13C293.286 106.639 292.344 108.437 291.746 110.478C291.144 112.509 290.84 114.722 290.84 117.057C290.84 119.432 291.154 121.645 291.777 123.635C292.405 125.641 293.407 127.408 294.765 128.872C296.117 130.346 297.859 131.5 299.945 132.305C302.017 133.106 304.534 133.521 307.425 133.516C313.376 133.496 316.511 132.169 317.802 131.455C318.03 131.328 318.248 131.105 317.974 130.467L316.627 126.694C316.425 126.132 315.852 126.34 315.852 126.34C315.724 126.387 315.59 126.438 315.451 126.492C313.991 127.051 311.856 127.868 307.395 127.859C304.199 127.854 301.829 126.912 300.346 125.438C298.821 123.929 298.077 121.711 297.945 118.581L318.552 118.601C318.552 118.601 319.094 118.591 319.149 118.065C319.15 118.054 319.153 118.035 319.156 118.008L319.162 117.969C319.253 117.299 319.769 113.518 318.537 109.187ZM134.677 108.635C133.841 109.906 133.305 111.537 133.011 113.497H147.708C147.561 111.608 147.191 109.906 146.345 108.635C145.059 106.71 143.271 105.647 140.567 105.647C137.862 105.647 135.938 106.705 134.677 108.635ZM150.868 104.366C151.708 105.267 152.985 107.237 153.501 109.187C154.739 113.519 154.223 117.3 154.131 117.969L154.131 117.97C154.125 118.018 154.12 118.05 154.119 118.065C154.063 118.591 153.521 118.601 153.521 118.601L132.915 118.581C133.046 121.711 133.791 123.929 135.315 125.438C136.799 126.912 139.169 127.854 142.36 127.859C146.827 127.868 148.96 127.051 150.418 126.493L150.419 126.493L150.421 126.492C150.56 126.438 150.694 126.387 150.822 126.34C150.822 126.34 151.394 126.132 151.602 126.694L152.944 130.467C153.218 131.105 153 131.328 152.772 131.455C151.48 132.169 148.346 133.496 142.395 133.516C139.503 133.521 136.986 133.106 134.915 132.305C132.829 131.5 131.086 130.346 129.734 128.872C128.377 127.408 127.374 125.641 126.746 123.635C126.123 121.645 125.809 119.432 125.809 117.057C125.809 114.722 126.118 112.509 126.716 110.478C127.313 108.437 128.255 106.639 129.506 105.13C130.757 103.616 132.352 102.401 134.252 101.509C136.146 100.618 138.485 100.187 141.053 100.187C143.261 100.187 145.277 100.664 146.958 101.383C148.244 101.94 149.541 102.937 150.868 104.366ZM88.4702 126.989C87.6649 126.346 87.5535 126.184 87.28 125.769C86.8749 125.136 86.6672 124.234 86.6672 123.09C86.6672 121.277 87.2648 119.975 88.5056 119.099C88.4904 119.104 90.2781 117.555 94.4815 117.61C97.434 117.651 100.073 118.086 100.073 118.086V127.455H100.078C100.078 127.455 97.4593 128.017 94.5119 128.195C90.3186 128.448 88.455 126.984 88.4702 126.989ZM96.6693 112.511C95.8337 112.45 94.7499 112.414 93.4535 112.414C91.686 112.414 89.9793 112.637 88.379 113.068C86.7685 113.498 85.3201 114.172 84.0743 115.063C82.8234 115.959 81.8156 117.104 81.0864 118.461C80.3571 119.818 79.9874 121.419 79.9874 123.211C79.9874 125.035 80.3014 126.62 80.9294 127.916C81.5573 129.218 82.4639 130.302 83.6185 131.137C84.7631 131.973 86.176 132.586 87.8168 132.955C89.4324 133.325 91.2657 133.512 93.2711 133.512C95.383 133.512 97.4897 133.34 99.5306 132.991C101.551 132.646 104.033 132.145 104.722 131.988C105.405 131.826 106.165 131.618 106.165 131.618C106.676 131.492 106.636 130.945 106.636 130.945L106.626 112.1C106.626 107.968 105.522 104.904 103.349 103.005C101.187 101.111 98.0012 100.154 93.8839 100.154C92.3393 100.154 89.8527 100.366 88.3638 100.665C88.3638 100.665 83.8616 101.536 82.0081 102.985C82.0081 102.985 81.6029 103.238 81.8257 103.805L83.2843 107.725C83.4666 108.231 83.9578 108.059 83.9578 108.059C83.9578 108.059 84.1148 107.998 84.2971 107.892C88.2625 105.734 93.2762 105.8 93.2762 105.8C95.5045 105.8 97.2162 106.246 98.3709 107.132C99.4952 107.993 100.067 109.295 100.067 112.04V112.911C98.295 112.657 96.6693 112.511 96.6693 112.511ZM262.563 101.153C262.699 101.204 263.029 101.427 262.872 101.893C262.679 102.455 261.676 105.276 261.322 106.217C261.19 106.577 260.967 106.82 260.572 106.775C260.572 106.775 259.387 106.496 258.309 106.496C257.559 106.496 256.501 106.592 255.543 106.886C254.607 107.175 253.751 107.686 252.996 108.415C252.247 109.15 251.639 110.173 251.193 111.449C250.737 112.74 250.51 114.796 250.51 116.858V132.213C250.51 132.557 250.231 132.841 249.887 132.841H244.473C244.128 132.841 243.845 132.557 243.845 132.213V101.477C243.845 101.128 244.093 100.849 244.437 100.849H249.719C250.064 100.849 250.312 101.128 250.312 101.477V103.984C251.102 102.926 252.52 101.994 253.796 101.417C255.083 100.839 256.521 100.404 259.109 100.561C260.461 100.647 262.213 101.016 262.563 101.153ZM212.055 87.6477C211.396 87.4451 210.799 87.3084 210.019 87.1615C209.229 87.0197 208.287 86.9488 207.218 86.9488C203.491 86.9488 200.553 88.0022 198.492 90.0786C196.441 92.1448 195.049 95.2897 194.35 99.4273L194.096 100.82H189.417C189.417 100.82 188.85 100.8 188.728 101.418L187.964 105.707C187.908 106.112 188.085 106.37 188.632 106.37H193.185L188.566 132.158C188.207 134.234 187.791 135.941 187.331 137.238C186.88 138.514 186.439 139.471 185.892 140.17C185.366 140.838 184.869 141.335 184.008 141.623C183.299 141.861 182.479 141.973 181.582 141.973C181.086 141.973 180.423 141.892 179.932 141.79C179.445 141.694 179.187 141.588 178.817 141.431C178.817 141.431 178.286 141.228 178.073 141.76C177.906 142.201 176.69 145.538 176.543 145.948C176.402 146.358 176.604 146.678 176.863 146.774C177.47 146.986 177.921 147.128 178.746 147.326C179.891 147.594 180.858 147.609 181.765 147.609C183.659 147.609 185.391 147.341 186.824 146.824C188.262 146.303 189.518 145.396 190.632 144.171C191.833 142.844 192.587 141.456 193.306 139.557C194.02 137.683 194.633 135.354 195.119 132.639L199.763 106.37H206.55C206.55 106.37 207.122 106.391 207.238 105.768L208.008 101.483C208.059 101.073 207.887 100.82 207.335 100.82H200.746C200.751 100.798 200.762 100.73 200.779 100.622L200.779 100.622C200.879 99.9942 201.191 98.0328 201.835 96.1709C202.159 95.2442 202.767 94.4896 203.278 93.973C203.785 93.4666 204.367 93.107 205.005 92.8994C205.658 92.6867 206.403 92.5854 207.218 92.5854C207.836 92.5854 208.449 92.6563 208.91 92.7525C209.548 92.8892 209.796 92.9602 209.963 93.0108C210.637 93.2134 210.728 93.0159 210.859 92.6917L212.434 88.3668C212.596 87.9009 212.196 87.7034 212.055 87.6477ZM119.405 132.837C119.749 132.837 119.997 132.559 119.997 132.214V88.2356C119.997 87.8913 119.749 87.6127 119.405 87.6127H113.94C113.596 87.6127 113.353 87.8913 113.353 88.2356V132.214C113.353 132.559 113.596 132.837 113.94 132.837H119.405Z" fill="white"/>
</g>
<defs>
<clipPath id="clip0_181_966">
<rect width="355.872" height="250" fill="white"/>
</clipPath>
</defs>
</svg>
