<svg width="598" height="250" viewBox="0 0 598 250" fill="none" xmlns="http://www.w3.org/2000/svg">
<path d="M392.399 102.961C416.51 102.961 430.185 121.379 428.957 146.941H372.083C373.723 157.769 383.57 165.405 394.464 164.299C401.919 164.476 409.134 161.663 414.501 156.486L424.436 167.257C416.639 175.3 405.765 179.609 394.576 179.09C370.297 179.09 354.614 162.904 354.614 141.025C354.385 130.91 358.283 121.138 365.411 113.957C372.539 106.776 382.283 102.806 392.399 102.961ZM132.143 102.961C156.254 102.961 169.928 121.379 168.7 146.941H111.882C113.522 157.745 123.333 165.373 134.208 164.299C141.662 164.476 148.878 161.663 154.245 156.486L164.179 167.257C156.382 175.3 145.509 179.609 134.319 179.09C110.041 179.09 94.357 162.904 94.357 141.025C94.1283 130.91 98.0265 121.138 105.154 113.957C112.282 106.776 122.026 102.806 132.143 102.961ZM499.337 116.635L486.333 124.226C482.687 118.811 476.502 115.666 469.979 115.909C461.663 115.909 457.422 119.984 457.422 124.672C457.422 129.36 464.119 131.37 474.668 133.714C474.908 133.766 475.148 133.819 475.39 133.873L476.114 134.036C476.477 134.118 476.841 134.202 477.206 134.288L477.935 134.462C478.178 134.521 478.421 134.58 478.664 134.641L479.394 134.826L480.122 135.018C490.431 137.778 500.23 142.577 500.23 155.481C500.23 165.583 491.468 179.146 470.705 179.034C457.67 179.99 445.232 173.425 438.668 162.123L452.677 154.588C456.447 161.337 463.646 165.442 471.375 165.248C480.137 165.248 484.658 160.727 484.658 155.593C484.658 150.458 476.175 148.448 466.966 146.551C466.717 146.498 466.468 146.445 466.218 146.392L465.471 146.228C465.346 146.201 465.222 146.173 465.097 146.145L464.351 145.975C452.785 143.303 441.682 138.798 441.682 124.784C441.682 113.23 452.845 102.458 469.924 102.458C481.524 101.76 492.657 107.126 499.337 116.635ZM339.935 70.8682V177.583H324.419V167.537C318.471 174.9 309.493 179.153 300.028 179.091C290.105 179.006 280.637 174.915 273.774 167.747C266.911 160.58 263.236 150.943 263.582 141.025C263.155 131.072 266.821 121.378 273.727 114.197C280.633 107.017 290.178 102.977 300.14 103.017C309.489 102.947 318.385 107.037 324.419 114.179V70.8682H339.935ZM81.1851 104.747V119.035L37.316 163.685H81.9665V177.75H17V163.518L60.8691 118.867H18.0046V104.747H81.1851ZM528.304 70.8682V140.746L561.178 104.356H580.043L551.522 135.667L580.713 177.583H563.243L540.583 145.155L528.304 158.606V177.639H512.788V70.8682H528.304ZM217.481 103.017C235.899 103.017 251.415 115.016 251.415 134.886V177.583H235.453V136.839C235.453 124.895 229.648 117.695 217.927 117.695C212.801 117.316 207.771 119.237 204.202 122.936C200.632 126.635 198.892 131.73 199.453 136.839V177.583H183.658V134.886C183.658 115.016 199.062 103.017 217.481 103.017ZM302.149 117.919C289.388 117.919 279.043 128.264 279.043 141.025C279.043 153.787 289.388 164.132 302.149 164.132C314.911 164.132 325.256 153.787 325.256 141.025C325.256 128.264 314.911 117.919 302.149 117.919ZM372.027 134.718L411.822 134.774C411.282 124.71 402.686 116.99 392.622 117.528C382.295 116.922 373.277 124.449 372.027 134.718ZM111.882 134.718L151.565 134.774C150.996 124.733 142.409 117.045 132.366 117.584C122.1 117.036 113.156 124.517 111.882 134.718Z" fill="white"/>
</svg>
